<svg width="800px" height="800px" viewBox="0 0 24 24" fill="none" xmlns="http://www.w3.org/2000/svg">
<path d="M10 8.16987C10.5937 7.68782 11.2816 7.33333 12 7.33333C12.7184 7.33333 13.4063 7.68782 14 8.16987M10.0005 4.04987C12.8165 3.11035 15.9714 4.44838 17.4493 6.74078M6.55078 6.74078C7.99106 4.40377 11.0431 3.10745 13.8169 4.05016M6 12C6 10.3584 6.21754 8.88241 7.1045 7.66635L7.1045 16.3336C6.21754 15.1176 6 13.6416 6 12ZM18 12C18 13.6416 17.7825 15.1176 16.8955 16.3336V7.66635C17.7825 8.88241 18 10.3584 18 12Z" stroke="#000000" stroke-width="2" stroke-linecap="round" stroke-linejoin="round"/>
<path d="M14.5 12C14.5 13.3807 13.3807 14.5 12 14.5C10.6193 14.5 9.5 13.3807 9.5 12C9.5 10.6193 10.6193 9.5 12 9.5C13.3807 9.5 14.5 10.6193 14.5 12Z" stroke="#000000" stroke-width="2"/>
<path d="M4 17L5.32255 15.8875M4 7L5.32255 8.11253" stroke="#000000" stroke-width="2" stroke-linecap="round" stroke-linejoin="round"/>
<path d="M20 17L18.6774 15.8875M20 7L18.6774 8.11253" stroke="#000000" stroke-width="2" stroke-linecap="round" stroke-linejoin="round"/>
</svg>